<svg id="Capa_1" enable-background="new 0 0 512 512" height="512" viewBox="0 0 512 512" width="512" xmlns="http://www.w3.org/2000/svg"><g><path d="m277.999 123.614 45.046-67.045-50.285-56.569h-33.522l-50.283 56.569 45.046 67.045z" fill="#8b818e"/><path d="m323.045 56.569 112.816-32.233c2.671-.763 4.513-3.205 4.513-5.983v-12.131c0-3.436-2.786-6.222-6.222-6.222h-161.392z" fill="#756e78"/><path d="m323.045 56.569 26.826-7.664-43.472-48.905h-33.639z" fill="#665e66"/><path d="m188.955 56.569-112.816-32.233c-2.671-.763-4.513-3.205-4.513-5.983v-12.131c0-3.436 2.786-6.222 6.222-6.222h161.392z" fill="#756e78"/><path d="m188.955 56.569-26.826-7.664 43.472-48.905h33.639z" fill="#665e66"/><path d="m330.828 449.934-67.999 59.5c-3.91 3.421-9.748 3.421-13.658 0l-10.998-9.622-57.003-49.88c-5.556-4.862-8.109-12.31-6.703-19.558l1.65-8.506 19.652-21.705-12.932-12.932 6.73-34.648 16.51-17.982-9.79-16.665 31.215-160.804 6.502-33.517h43.991l33.973 175.053-5.673 15.628 11.967 16.821.01.01 6.295 32.49-12.818 12.807 19.123 19.652 6.657 34.296c1.409 7.249-1.144 14.699-6.701 19.562z" fill="#8b818e"/><path d="m330.828 449.934-67.999 59.5c-3.91 3.421-9.748 3.421-13.658 0l-10.998-9.622 69.036-59.018c5.735-4.905 8.39-12.517 6.959-19.922l-49.539-255.257c-.964-4.926-5.268-8.483-10.287-8.483h-26.849l6.513-33.517h43.991l33.973 175.053-5.673 15.628 11.967 16.821.01.01 6.295 32.49-12.818 12.807 19.123 19.652 6.657 34.296c1.407 7.249-1.146 14.699-6.703 19.562z" fill="#756e78"/><path d="m318.279 331.13-128.717 21.454 6.726-34.644 115.684-19.275z" fill="#ffe07d"/><path d="m297.421 334.606 20.853-3.476-5.619-28.949-.683-3.516-20.853 3.475z" fill="#ffd064"/><path d="m176.112 421.871 154.769-25.792-6.306-32.475-141.738 23.623z" fill="#ffe07d"/><path d="m310.026 399.555 20.853-3.475-3.558-18.331-2.746-14.144-20.852 3.475z" fill="#ffd064"/><path d="m212.615 224.182h34.401c9.257 0 16.761-7.504 16.761-16.761 0-9.257-7.504-16.761-16.761-16.761h-27.854c-2.749 0-5.179 1.787-5.999 4.411l-6.547 20.952c-1.265 4.046 1.759 8.159 5.999 8.159z" fill="#bed8fb"/></g></svg>