<svg id="Capa_1" enable-background="new 0 0 512 512" height="512" viewBox="0 0 512 512" width="512" xmlns="http://www.w3.org/2000/svg"><g><g><path d="m307.703 227.784h-103.406c-4.204 0-7.611-3.407-7.611-7.611s3.408-7.611 7.611-7.611h103.407c4.204 0 7.611 3.407 7.611 7.611s-3.408 7.611-7.612 7.611z" fill="#eab14d"/></g><path d="m418.309 339.14c-14.387-14.386-41.217-14.552-42.353-14.552-2.98 0-5.553 1.716-6.802 4.211-.002-.001-.003-.002-.005-.003l-24.647 49.293c-1.88 3.76-.356 8.332 3.404 10.212 1.093.547 2.254.806 3.398.806 2.792 0 5.48-1.542 6.814-4.209l14.26-28.519c2.153 6.491 5.451 13.105 10.521 18.174 4.882 4.881 11.293 7.321 17.706 7.321s12.824-2.44 17.706-7.321v-.001c9.761-9.764 9.76-25.649-.002-35.412zm-10.764 24.647c-3.828 3.828-10.055 3.827-13.883.001-5.662-5.663-8.304-15.668-9.406-23.305 7.619 1.091 17.594 3.727 23.289 9.422 3.827 3.827 3.827 10.055 0 13.882z" fill="#e7a52e"/><path d="m93.69 374.552c4.882 4.882 11.294 7.322 17.706 7.322s12.824-2.44 17.706-7.321c5.07-5.07 8.368-11.684 10.521-18.174l14.26 28.519c1.333 2.667 4.022 4.209 6.814 4.209 1.144 0 2.305-.259 3.398-.806 3.76-1.88 5.284-6.452 3.404-10.212l-24.647-49.293c-.002.001-.003.002-.005.003-1.25-2.494-3.823-4.211-6.802-4.211-1.135 0-27.965.165-42.353 14.552-9.763 9.763-9.764 25.648-.002 35.412zm10.765-24.647c5.695-5.695 15.67-8.331 23.289-9.422-1.102 7.637-3.744 17.642-9.406 23.305-3.828 3.826-10.055 3.827-13.883-.001-3.827-3.827-3.827-10.055 0-13.882z" fill="#e7a52e"/><g><path d="m134.001 133.367c-1.029 0-2.075-.21-3.076-.653-3.844-1.702-5.581-6.196-3.88-10.041l52.283-118.14c1.701-3.844 6.199-5.579 10.041-3.88 3.844 1.702 5.581 6.196 3.88 10.041l-52.283 118.14c-1.258 2.842-4.044 4.533-6.965 4.533z" fill="#eab14d"/></g><g><path d="m377.999 133.367c-2.921 0-5.706-1.691-6.964-4.533l-52.283-118.14c-1.701-3.844.036-8.339 3.88-10.041 3.842-1.701 8.339.036 10.041 3.88l52.283 118.14c1.701 3.844-.036 8.339-3.88 10.041-1.003.443-2.048.653-3.077.653z" fill="#eab14d"/></g><g><path d="m42.771 251.016c-2.593 0-5.12-1.325-6.545-3.715-2.153-3.611-.971-8.282 2.639-10.435l58.821-35.076c3.612-2.153 8.283-.972 10.436 2.639 2.153 3.61.971 8.282-2.639 10.435l-58.821 35.076c-1.222.729-2.565 1.076-3.891 1.076z" fill="#eab14d"/></g><g><path d="m469.229 251.016c-1.326 0-2.669-.347-3.891-1.075l-58.821-35.076c-3.611-2.153-4.792-6.825-2.639-10.435 2.153-3.611 6.825-4.791 10.436-2.639l58.821 35.076c3.611 2.153 4.792 6.825 2.639 10.435-1.424 2.389-3.952 3.714-6.545 3.714z" fill="#eab14d"/></g><g><path d="m375.957 331.185c-78.348 53.271-96.826 130.712-101.184 164.277-1.227 9.451-9.242 16.538-18.773 16.538-9.531 0-17.546-7.087-18.773-16.539-4.358-33.565-22.836-111.006-101.184-164.277h239.914z" fill="#ffe07d"/><path d="m276.642 331.185c2.793 10.046 4.309 20.782 4.309 31.942 0 42.115-21.53 78.249-52.212 93.675 4.763 15.473 7.223 28.917 8.488 38.66 1.227 9.451 9.242 16.538 18.773 16.538 9.531 0 17.546-7.087 18.773-16.539 4.358-33.565 22.836-111.006 101.184-164.277h-99.315z" fill="#ffd064"/></g><g><path d="m236.614 213.652c-6.697-20.088-32.021-80.661-97.911-96.975-3.036-.752-6.255-.027-8.694 1.931-12.022 9.65-47.104 42.555-48.26 98.715-.041 2.007.545 3.976 1.649 5.653 5.451 8.281 24.858 32.052 68.035 32.052 40.477 0 70.509-20.891 82.008-30.326 3.252-2.668 4.503-7.059 3.173-11.05z" fill="#ffe07d"/><path d="m203.516 156.175c.127 2.022.199 4.058.199 6.112 0 43.13-28.487 79.604-67.672 91.64 4.763.695 9.871 1.102 15.39 1.102 40.477 0 70.508-20.891 82.008-30.326 3.243-2.661 4.508-7.04 3.182-11.02-3.774-11.327-13.491-35.591-33.107-57.508z" fill="#ffd064"/><path d="m275.386 213.652c6.697-20.089 32.022-80.664 97.915-96.976 3.033-.751 6.249-.027 8.686 1.929 12.019 9.647 47.108 42.553 48.263 98.718.041 2.007-.545 3.976-1.649 5.653-5.451 8.281-24.858 32.052-68.035 32.052-40.477 0-70.509-20.891-82.008-30.326-3.251-2.668-4.502-7.059-3.172-11.05z" fill="#ffe07d"/><path d="m386.965 122.859c5.434 12.026 8.459 25.373 8.459 39.427 0 40.954-25.687 75.903-61.827 89.631 8.33 1.925 17.352 3.111 26.97 3.111 43.171 0 62.578-23.764 68.032-32.048 1.14-1.732 1.693-3.776 1.648-5.849-1.09-49.596-28.636-81.018-43.282-94.272z" fill="#ffd064"/></g><g><path d="m430.28 338.796h-348.56c-4.204 0-7.611-3.407-7.611-7.611s3.408-7.611 7.611-7.611h348.56c4.204 0 7.611 3.407 7.611 7.611s-3.407 7.611-7.611 7.611z" fill="#eab14d"/></g></g></svg>