<svg id="Capa_1" enable-background="new 0 0 512 512" height="512" viewBox="0 0 512 512" width="512" xmlns="http://www.w3.org/2000/svg"><g><path d="m455.805 328.359v-153.624c0-59.527-42.016-110.779-100.387-122.453l-33.462-6.693c-21.716-4.343-43.808-6.531-65.955-6.531-22.146 0-44.239 2.188-65.955 6.531l-33.462 6.693c-58.373 11.674-100.389 62.926-100.389 122.453v153.624z" fill="#c1a098"/><path d="m355.417 52.282-13.865-2.773c48.035 18.019 80.951 64.215 80.951 116.901v161.949h33.301v-153.624c.001-59.527-42.016-110.779-100.387-122.453z" fill="#b48e84"/><path d="m56.195 328.359h399.609v99.902h-399.609z" fill="#8b818e"/><path d="m422.504 328.359v11.966c0 12.906-9.122 23.983-21.772 26.541-47.582 9.623-96.038 14.498-144.731 14.498-67.628 0-134.801-9.371-199.805-27.851v74.749h399.609v-99.902h-33.301z" fill="#756e78"/><path d="m489.955 435.817c-152.033 49.499-315.878 49.499-467.911 0-13.126-4.274-22.044-16.466-22.044-30.271 0-21.312 20.531-36.509 40.962-30.445 140.319 41.651 289.756 41.651 430.075 0 20.431-6.065 40.962 9.132 40.962 30.445.001 13.805-8.918 25.997-22.044 30.271z" fill="#c1a098"/><path d="m471.037 375.101c-6.88 2.042-13.784 3.981-20.706 5.823 7.068 5.74 11.717 14.486 11.717 24.622 0 13.804-8.918 25.997-22.044 30.27-68.001 22.14-138.366 34.369-208.98 36.703 87.259 2.885 174.899-9.344 258.931-36.703 13.126-4.274 22.044-16.466 22.044-30.27.001-21.312-20.53-36.509-40.962-30.445z" fill="#b48e84"/></g></svg>