<svg id="Capa_1" enable-background="new 0 0 512 512" height="512" viewBox="0 0 512 512" width="512" xmlns="http://www.w3.org/2000/svg"><g><path d="m257.149 391.267c.001-.001.003-.002.004-.003l-76.254-76.254c-1.932-1.932-3.017-4.552-3.017-7.284v-218.798c0-5.69-4.612-10.302-10.302-10.302h-112.754c-5.69 0-10.302 4.612-10.302 10.302v200.144l34.274 123.879 78.334 78.334z" fill="#eaa598"/><g><path d="m223.81 401.686c3.945 3.945 7.307 8.25 10.125 12.795l23.213-23.213-76.255-76.255c-1.932-1.932-3.017-4.552-3.017-7.284v-218.805c0-5.69-4.612-10.302-10.302-10.302h-23.037v230.845c0 8.289 3.293 16.239 9.155 22.101z" fill="#e48e81"/><path d="m257.149 491.286c27.619-27.619 27.619-72.399 0-100.018l-100.018 100.018c27.619 27.619 72.399 27.619 100.018 0z" fill="#ffd8d5"/><path d="m257.149 391.267-23.214 23.214c16.911 27.276 13.549 63.549-10.125 87.223-3.974 3.974-8.312 7.357-12.895 10.188 16.821-.894 33.385-7.757 46.233-20.606 27.62-27.62 27.62-72.4.001-100.019z" fill="#eab1b7"/><g fill="#ffd8d5"><path d="m68.932 403.085 9.865 9.865c19.41-11.657 32.402-32.907 32.402-57.197 0-36.825-29.853-66.678-66.678-66.678v55.075c-.001 22.105 8.781 43.304 24.411 58.935z"/><path d="m44.52 169.263c14.237-.001 22.41-6.131 27.293-9.794 3.339-2.504 3.611-2.708 6.041-2.708 2.431 0 2.704.204 6.043 2.709 4.884 3.663 13.058 9.793 27.297 9.793s22.412-6.131 27.296-9.793c3.339-2.504 3.611-2.709 6.042-2.709 2.432 0 2.705.204 6.045 2.709 4.884 3.663 13.058 9.793 27.297 9.793h.003v-35.423c-.001 0-.002 0-.003 0-2.432 0-2.705-.205-6.045-2.709-4.884-3.663-13.058-9.793-27.297-9.793-14.238 0-22.412 6.131-27.296 9.794-3.339 2.504-3.611 2.708-6.041 2.708-2.431 0-2.704-.205-6.043-2.709-4.884-3.663-13.058-9.793-27.297-9.793s-22.412 6.131-27.296 9.794c-3.337 2.503-3.611 2.708-6.039 2.708z"/><path d="m44.52 245.317c14.237-.001 22.41-6.131 27.293-9.794 3.339-2.504 3.611-2.708 6.041-2.708 2.431 0 2.704.204 6.043 2.709 4.884 3.663 13.058 9.793 27.297 9.793s22.412-6.131 27.296-9.793c3.339-2.504 3.611-2.709 6.042-2.709 2.432 0 2.705.204 6.045 2.709 4.884 3.663 13.058 9.793 27.297 9.793h.003v-35.423c-.001 0-.002 0-.003 0-2.432 0-2.705-.205-6.045-2.709-4.884-3.663-13.058-9.793-27.297-9.793-14.238 0-22.412 6.131-27.296 9.794-3.339 2.504-3.611 2.708-6.041 2.708-2.431 0-2.704-.205-6.043-2.709-4.884-3.663-13.058-9.793-27.297-9.793s-22.412 6.131-27.296 9.794c-3.337 2.503-3.611 2.708-6.039 2.708z"/></g><path d="m144.538 232.815c2.426 0 2.702.207 6.039 2.709 4.884 3.663 13.058 9.793 27.297 9.793h.003v-35.423c-.001 0-.002 0-.003 0-2.432 0-2.705-.205-6.045-2.709-4.883-3.662-13.056-9.791-27.291-9.793z" fill="#eab1b7"/><path d="m144.538 156.761c2.426 0 2.702.207 6.039 2.709 4.884 3.663 13.058 9.793 27.297 9.793h.003v-35.423c-.001 0-.002 0-.003 0-2.432 0-2.705-.205-6.045-2.709-4.883-3.662-13.056-9.791-27.291-9.793z" fill="#eab1b7"/></g><g><path d="m446.765 312.645c.002 0 .004-.001.006-.001-.001-.001-.001-.002-.002-.002l-76.255-76.255c-1.932-1.932-3.017-4.552-3.017-7.284v-218.799c0-5.69-4.612-10.302-10.302-10.302h-112.754c-5.69 0-10.302 4.612-10.302 10.302v200.144l34.274 123.879 78.335 78.335z" fill="#eaa598"/><path d="m423.552 335.859 23.213-23.213-76.255-76.256c-1.932-1.932-3.017-4.552-3.017-7.284v-218.804c0-5.69-4.613-10.302-10.302-10.302h-23.037v230.845c0 8.289 3.293 16.239 9.154 22.101l70.118 70.118c3.945 3.945 7.307 8.249 10.126 12.795z" fill="#e48e81"/><path d="m446.765 412.664c27.619-27.619 27.619-72.399 0-100.018l-100.018 100.018c27.619 27.619 72.399 27.619 100.018 0z" fill="#ffd8d5"/><path d="m446.765 312.645-23.214 23.214c16.911 27.276 13.549 63.549-10.125 87.223-3.974 3.974-8.312 7.357-12.895 10.188 16.821-.894 33.385-7.757 46.234-20.606 27.619-27.62 27.619-72.4 0-100.019z" fill="#eab1b7"/><g fill="#ffd8d5"><path d="m258.548 324.463 9.865 9.865c19.41-11.657 32.402-32.907 32.402-57.197 0-36.825-29.853-66.678-66.678-66.678v55.075c-.001 22.105 8.781 43.304 24.411 58.935z"/><path d="m234.136 90.641c14.237-.001 22.41-6.131 27.293-9.794 3.339-2.504 3.611-2.708 6.042-2.708s2.704.204 6.042 2.709c4.884 3.663 13.058 9.793 27.297 9.793 14.238 0 22.412-6.131 27.296-9.793 3.339-2.504 3.611-2.709 6.042-2.709 2.432 0 2.705.204 6.045 2.709 4.884 3.663 13.058 9.793 27.297 9.793h.003v-35.423c-.001 0-.002 0-.003 0-2.432 0-2.705-.205-6.045-2.709-4.884-3.663-13.058-9.793-27.297-9.793-14.238 0-22.412 6.131-27.296 9.794-3.339 2.504-3.611 2.708-6.042 2.708s-2.704-.205-6.042-2.709c-4.884-3.663-13.058-9.793-27.297-9.793-14.238 0-22.412 6.131-27.296 9.794-3.337 2.503-3.611 2.708-6.039 2.708z"/><path d="m234.136 166.695c14.237-.001 22.41-6.131 27.293-9.794 3.339-2.504 3.611-2.708 6.042-2.708s2.704.205 6.042 2.709c4.884 3.663 13.058 9.793 27.297 9.793 14.238 0 22.412-6.131 27.296-9.793 3.339-2.504 3.611-2.709 6.042-2.709 2.432 0 2.705.205 6.045 2.709 4.884 3.663 13.058 9.793 27.297 9.793h.003v-35.423c-.001 0-.002 0-.003 0-2.432 0-2.705-.204-6.045-2.709-4.884-3.663-13.058-9.793-27.297-9.793-14.238 0-22.412 6.131-27.296 9.794-3.339 2.504-3.611 2.708-6.042 2.708s-2.704-.204-6.042-2.709c-4.884-3.663-13.058-9.793-27.297-9.793-14.238 0-22.412 6.131-27.296 9.794-3.337 2.503-3.611 2.708-6.039 2.708z"/></g><path d="m334.154 154.193c2.426 0 2.702.207 6.039 2.709 4.884 3.663 13.058 9.793 27.297 9.793h.003v-35.423c-.001 0-.002 0-.003 0-2.432 0-2.705-.204-6.045-2.709-4.883-3.662-13.056-9.791-27.291-9.793z" fill="#eab1b7"/><path d="m334.154 78.139c2.426 0 2.702.207 6.039 2.709 4.884 3.663 13.058 9.793 27.297 9.793h.003v-35.423c-.001 0-.002 0-.003 0-2.432 0-2.705-.205-6.045-2.709-4.883-3.662-13.056-9.791-27.291-9.793z" fill="#eab1b7"/></g></g></svg>