<svg id="Capa_1" enable-background="new 0 0 512 512" height="512" viewBox="0 0 512 512" width="512" xmlns="http://www.w3.org/2000/svg"><g><path d="m405.245 39.045c-8.967.422-15.866 8.147-15.866 17.124v211.268c0 11.51-9.331 20.84-20.84 20.84h-112.539v84.663h166.722l.002-317.242c0-9.475-7.905-17.104-17.479-16.653z" fill="#e27a66"/><path d="m222.656 372.941h39.596c5.755 0 10.42-4.665 10.42-10.42v-63.823c0-5.755-4.665-10.42-10.42-10.42h-39.596z" fill="#ffd8d5"/><path d="m122.621 267.437v-211.268c0-8.977-6.899-16.702-15.866-17.124-9.574-.451-17.478 7.178-17.478 16.653l.001 317.242h133.378v-84.663h-79.194c-11.51 0-20.841-9.33-20.841-20.84z" fill="#e27a66"/><path d="m468.32 290.253c-7.9-7.764-12.254-18.44-12.254-29.516v-205.038c0-9.208-7.464-16.672-16.672-16.672h-33.344c9.208 0 16.672 7.464 16.672 16.672v185.245c0 18.363-12.123 34.377-29.678 39.763-48.701 14.942-83.984 48.695-106.543 77.449-7.343 9.359-18.604 14.786-30.5 14.786-11.896 0-23.157-5.427-30.5-14.786-22.56-28.754-57.842-62.507-106.544-77.449-17.555-5.386-29.678-21.4-29.678-39.763v-185.245c0-9.208 7.464-16.672 16.672-16.672h-33.345c-9.208 0-16.672 7.464-16.672 16.672v205.038c0 11.077-4.353 21.752-12.254 29.516-17.865 17.558-40.298 49.78-43.601 102.593-.578 9.234 2.042 18.394 7.319 25.993 13.418 19.32 44.283 54.135 92.468 54.135 61.842 0 111.477-30.53 137.112-50.277 11.209-8.634 26.836-8.634 38.045 0 25.635 19.746 75.27 50.277 137.112 50.277 48.185 0 79.049-34.815 92.468-54.135 5.278-7.599 7.897-16.759 7.319-25.993-3.304-52.813-25.737-85.035-43.602-102.593z" fill="#eaa598"/><path d="m511.922 392.846c-3.26-52.112-25.142-84.166-42.885-101.876 2.418 9.689 3.703 19.761 3.703 30.102 0 70.719-59.648 128.974-136.421 136.781 21.997 8.772 47.633 15.121 75.817 15.121 48.185 0 79.05-34.815 92.468-54.135 5.276-7.599 7.895-16.759 7.318-25.993z" fill="#e48e81"/><path d="m272.672 338.336h-12.504c-4.268 0-7.726-3.459-7.726-7.726s3.459-7.726 7.726-7.726h12.504z" fill="#eaa598"/><g><path d="m320.525 408.208c-1.062 0-2.143-.221-3.175-.687l-20.766-9.378c-2.197-.992-3.806-2.954-4.348-5.303-.542-2.35.043-4.817 1.583-6.673.71-.855 17.639-20.953 39.29-20.953 4.268 0 7.726 3.459 7.726 7.726s-3.459 7.726-7.726 7.726c-7.44 0-14.547 4.15-19.658 8.138l10.26 4.633c3.889 1.757 5.618 6.333 3.861 10.222-1.29 2.858-4.103 4.549-7.047 4.549z" fill="#e48e81"/></g><g><path d="m191.475 408.208c-2.945 0-5.757-1.691-7.046-4.548-1.757-3.889-.028-8.465 3.861-10.222l10.281-4.643c-5.097-3.984-12.197-8.128-19.679-8.128-4.268 0-7.726-3.459-7.726-7.726s3.459-7.726 7.726-7.726c21.651 0 38.579 20.098 39.29 20.953 1.539 1.856 2.125 4.323 1.583 6.673-.542 2.349-2.151 4.311-4.348 5.303l-20.766 9.378c-1.033.465-2.114.686-3.176.686z" fill="#e48e81"/></g></g></svg>